#!OML:ASF E:/inclinewalkrobotboard/Project1/Captureday1/Session1/subject1.ASF
:FULLY-SPECIFIED
:DEGREES
138
root 0 0 0 -1.1851959242523593 -2.8411526839285712 -0.9012315986580067
lowerback 10.939741154410935 0.5593478223349512 0.48094914064270533
upperback -1.0839860210309076 0.879137851481045 0.9262650163173378
thorax -7.253964311632607 0.40376569302330356 0.45901357008205723
lowerneck -13.468556270438972 -1.4372087436153635 0.17867504214274832
upperneck 19.048992363084704 -1.4499536431029267 -2.2955255734708593
head 8.223469612774272 -0.8285891463462361 -0.9839795494422838
rclavicle -4.61341240968178E-16 -2.2820782329095406E-16
rhumerus -11.842122150388736 -6.814917014687757 -67.31835251083285
rradius 42.88283526160478
rwrist 11.9832532363263
rhand -23.57907941084657 -5.416239501011457
rfingers 7.125020000000134
rthumb 3.126672170695456 -35.57986085036803
lclavicle -9.681864620880378E-16 -8.145504283319719E-16
lhumerus -12.004841024569913 -4.202960288629086 68.42910672006568
lradius 43.98168283507429
lwrist -5.290934617604142
lhand -33.44626591403289 -11.449251536218247
lfingers 7.125020000000128
lthumb -6.735153924508648 17.620501143686838
rfemur 4.362710432458304 9.355868668998557 34.794013190462685
rtibia 20.460434949743306
rfoot -16.535635044344012 -4.6568726848060855
rtoes 3.7184365384720808
lfemur 0.16871959662724478 0.027182883261002044 -20.391350452165852
ltibia 51.96544431549404
lfoot 4.733899424684354 -14.077143559452006
ltoes -6.83332655115742
139
root 0 0 0 -1.1825178010495403 -2.843080196423188 -0.8975154330269258
lowerback 10.941270466949156 0.560162356698246 0.4809608688999666
upperback -1.0893353082877564 0.8797492170402469 0.9241715441764096
thorax -7.259992820236129 0.4040869260057456 0.4567725706090125
lowerneck -13.459535506537327 -1.432964671692047 0.18445752318141045
upperneck 19.049882551506506 -1.4419463109165238 -2.3030009688961766
head 8.221977251645425 -0.8255893647231876 -0.9869489082603756
rclavicle -4.608270574231755E-16 -2.364145454942818E-16
rhumerus -11.693775998695294 -6.7130501789025345 -67.22831322362826
rradius 43.02344884055099
rwrist 12.053522804363585
rhand -23.629010087137665 -5.658775942138831
rfingers 7.125020000000133
rthumb 3.076672497705757 -35.813339710953535
lclavicle -9.752063341129502E-16 -8.126047756417378E-16
lhumerus -12.075170706715046 -4.184357499220717 68.47774235590799
lradius 43.92757384490925
lwrist -5.254991764087077
lhand -33.42224372523381 -11.321057828462095
lfingers 7.125020000000128
lthumb -6.712246105541803 17.738466076744295
rfemur 9.236156452891759 9.28404607820606 36.52672877837807
rtibia 24.14445305013883
rfoot -16.3558463796006 -3.287630801817822
rtoes 5.231802285326169
lfemur -10.447155784752432 0.9412778558567566 -15.74033636534298
ltibia 57.98148087914937
lfoot 7.3950003361126 -13.189823008355221
ltoes -5.993069772947504
140
root 0 0 0 -1.1717785109734578 -2.847420693452415 -0.8849229083995049
lowerback 10.946054717343191 0.5620617643024568 0.47834113844470627
upperback -1.1055724852951552 0.8809048368965849 0.9173047331613331
thorax -7.28013058499042 0.4048803417702968 0.4503987541913005
lowerneck -13.426924421845765 -1.4185249168533758 0.2040589516803502
upperneck 19.050361673731423 -1.4182673624546247 -2.330065186380006
head 8.216304036500448 -0.8160049794133946 -0.9973071408174286
rclavicle -4.618570581119154E-16 -2.552215973032403E-16
rhumerus -11.348269360478527 -6.481212808226143 -67.01604912448079
rradius 43.35127325001957
rwrist 12.215967826933818
rhand -23.745059010355963 -6.224691709980487
rfingers 7.125020000000132
rthumb 2.959658329582359 -36.36383169356795
lclavicle -9.771657437634692E-16 -8.099657980839681E-16
lhumerus -11.956322581909667 -4.211368828729479 68.38861856952573
lradius 44.02701557970344
lwrist -5.325536429479449
lhand -33.46455542814308 -11.55011198318422
lfingers 7.125020000000128
lthumb -6.752448726995054 17.50450885898918
rfemur 11.896011955772408 9.00907794399092 37.35861563184284
rtibia 27.701113629658252
rfoot -15.762501471074838 -2.371145304267638
rtoes 6.286293521982663
lfemur -19.908371525414047 1.2882473959144036 -12.163489379111699
ltibia 59.390941037374134
lfoot 7.682867195270697 -10.785264759440544
ltoes -4.8672164835001945
141
root 0 0 0 -1.150280177937451 -2.8550846840016018 -0.86006640313477
lowerback 10.955342681329364 0.5655817273492273 0.4730968700710586
upperback -1.1365323299045977 0.8831683440710879 0.9037475872967966
thorax -7.319317219464759 0.40627611358319027 0.43844970638882685
lowerneck -13.362661212477722 -1.390262490343872 0.24262801771004
upperneck 19.050150606972952 -1.3733951055295541 -2.3830060839963023
head 8.204768591398668 -0.7974685996213873 -1.0175575256098748
rclavicle -4.676767720719759E-16 -2.85893741018332E-16
rhumerus -10.774452093097587 -6.097326430059158 -66.66393988014738
rradius 43.892322915150075
rwrist 12.483962475316371
rhand -23.93709623887526 -7.157810788861282
rfingers 7.12502000000013
rthumb 2.7664739066872217 -37.278386388784455
lclavicle -9.78670009403101E-16 -8.046076374963676E-16
lhumerus -11.734095518231143 -4.262966378034383 68.22453736108304
lradius 44.20876111785708
lwrist -5.454805128358595
lhand -33.54385900305318 -11.981211968488974
lfingers 7.125020000000127
lthumb -6.827478488761091 17.079702810560345
rfemur 13.6647916545008 8.567418953902072 37.782398220569696
rtibia 31.77958502558012
rfoot -14.812219351787917 -1.5753130151376098
rtoes 7.26706399113417
lfemur -30.248364513773936 0.6193268600728413 -9.103674856478554
ltibia 53.342232871061476
lfoot 5.1729936493212865 -5.44227370272067
ltoes -2.2780169039667184
142
root 0 0 0 -1.1395292736793947 -2.8588315627771648 -0.8477491859722962
lowerback 10.959947959765906 0.5673480873445319 0.47052728361112306
upperback -1.1517388246932305 0.8843525414541225 0.8968681551639881
thorax -7.3384248006635975 0.4069577848478009 0.43263289431628227
lowerneck -13.330848967424233 -1.3762499593481852 0.26171585221396393
upperneck 19.049809731999346 -1.3513235699457455 -2.408993386084121
head 8.198906829255177 -0.7882564954040088 -1.0274699859486789
rclavicle -4.693346779543054E-16 -2.978325298261294E-16
rhumerus -10.541675819985903 -5.940896655901852 -66.5218874327474
rradius 44.109645302708735
rwrist 12.592107473361688
rhand -24.014583173009896 -7.533040834958298
rfingers 7.125020000000128
rthumb 2.6885409271626686 -37.64734800298558
lclavicle -9.821723703584271E-16 -8.000265691257342E-16
lhumerus -11.70447334733319 -4.268806267718258 68.20234876715845
lradius 44.23305609183768
lwrist -5.474201838817487
lhand -33.555146671660076 -12.045013895310758
lfingers 7.125020000000127
lthumb -6.8374609364714924 17.019620918327902
rfemur 14.112784531898207 8.308551774438218 37.81657551272289
rtibia 33.79533336017852
rfoot -14.250481282708348 -1.2662821045553194
rtoes 7.6832802421898565
lfemur -34.14051997004249 -0.3395161933675751 -8.387945396917003
ltibia 45.968529282815936
lfoot 2.426956810601686 -1.632262487443737
ltoes -0.5444996985245769
